:SAMPLES-PER-SECOND 30
:FRAME-RANGE 1-744
:FULLY-SPECIFIED
:DEGREES
187
root  -12.3956 40.4721 -62.5972 -10.3057 70.6878 -0.986832
RightUpLeg  12.8082 -1.48646 -3.18493
RightLeg  -3.82785 5.389 -5.68624
RightFoot  -2.6825 -0.871177 11.231
RightToes  5.82063e-011 0 -3.6325e-017
Spine  12.059 4.73912 5.10069
Spine1  -2.66374 7.12493 -12.4958
HEad  16.6833 -10.4508 -3.61465
LeftShoulder1  2.38583 -2.65944 -32.6883
LeftArm  4.48653 29.9362 -3.15559
LeftForeArm  62.6885 -75.531 -122.365
LeftHand  -0.171808 1.99008 5.61469
RightShoulder  5.24169 4.51794 56.9536
RightArm  6.49399 2.92334 -4.84369
RightForeArm  6.02872 74.4665 49.2215
RightHand  3.55062 15.2782 19.1634
LeftUpLeg  9.37964 3.36845 -1.35704
LeftLeg  1.17423 -24.0851 1.55678
LeftFoot  -2.54135 -0.67415 8.94142
LeftToes  1.25507e-010 -3.78807e-010 5.71421e-011
188
root  -12.3742 40.4578 -62.3616 -10.3361 69.4254 -1.08235
RightUpLeg  11.719 -0.577515 -2.29101
RightLeg  -1.75579 5.80774 -5.9881
RightFoot  -3.78096 -0.769101 11.2152
RightToes  5.82063e-011 0 -3.6325e-017
Spine  12.1709 4.84248 4.78401
Spine1  -2.74976 7.08698 -11.9086
HEad  16.5297 -13.914 -3.50948
LeftShoulder1  2.42713 -2.76114 -32.7202
LeftArm  5.80899 31.4449 -2.91038
LeftForeArm  66.8305 -75.5268 -122.966
LeftHand  -0.352239 0.813852 8.924
RightShoulder  4.74851 3.74606 57.0879
RightArm  6.70377 2.27717 -5.09765
RightForeArm  7.28819 74.5305 49.2929
RightHand  3.82274 15.9973 19.9291
LeftUpLeg  9.35873 3.87435 -0.665671
LeftLeg  1.75218 -23.4084 1.14574
LeftFoot  -3.25713 -0.612401 8.9253
LeftToes  1.25507e-010 -3.78807e-010 5.71421e-011
189
root  -12.4257 40.4376 -62.0625 -10.6809 67.3512 -1.47786
RightUpLeg  10.018 1.42699 -0.902801
RightLeg  1.34026 6.03218 -6.06482
RightFoot  -4.7638 -0.660557 10.8978
RightToes  5.82063e-011 0 -3.6325e-017
Spine  12.4579 5.10599 4.40227
Spine1  -2.84976 7.22042 -11.3939
HEad  16.1485 -17.2148 -2.73924
LeftShoulder1  2.4168 -2.76027 -32.561
LeftArm  6.8351 32.7795 -2.70204
LeftForeArm  70.5437 -75.2878 -124.737
LeftHand  -0.385928 -0.550183 7.64834
RightShoulder  4.46683 3.27261 57.4331
RightArm  6.84916 1.87807 -5.24163
RightForeArm  7.54604 74.3706 48.3808
RightHand  4.04868 16.7201 20.4057
LeftUpLeg  9.33164 4.83209 0.623307
LeftLeg  2.50182 -22.5527 0.348858
LeftFoot  -4.06795 -0.537994 8.83251
LeftToes  1.25507e-010 -3.78807e-010 5.71421e-011
190
root  -12.5126 40.4343 -61.7681 -10.8865 64.8301 -1.89349
RightUpLeg  7.82705 6.45797 0.684251
RightLeg  5.20824 3.83849 -5.27202
RightFoot  -5.43832 -0.619739 11.2652
RightToes  5.82063e-011 0 -3.6325e-017
Spine  12.5979 5.38121 4.10168
Spine1  -2.79625 7.40511 -10.9652
HEad  15.7259 -19.8907 -2.04498
LeftShoulder1  2.42997 -2.76772 -32.7247
LeftArm  7.12618 33.4894 -2.33554
LeftForeArm  70.5831 -75.2122 -125.114
LeftHand  -0.228254 -0.199806 4.80194
RightShoulder  4.26703 2.89862 58.0245
RightArm  6.91494 1.50079 -5.32857
RightForeArm  6.76735 74.0998 47.1788
RightHand  4.22647 17.2394 20.8045
LeftUpLeg  9.59971 5.8036 1.97389
LeftLeg  2.34279 -21.3181 -0.049424
LeftFoot  -4.57415 -0.458116 8.2007
LeftToes  1.25507e-010 -3.78807e-010 5.71421e-011
191
root  -12.6362 40.3854 -61.4576 -10.765 61.9845 -1.97911
RightUpLeg  5.4143 13.0217 1.55548
RightLeg  9.35769 0.0404231 -3.40764
RightFoot  -6.76898 -0.557292 12.7517
RightToes  5.82063e-011 0 -3.6325e-017
Spine  12.9398 5.56127 3.74821
Spine1  -2.95304 7.51892 -11.0203
HEad  15.1972 -21.847 -1.38608
LeftShoulder1  2.42751 -2.81103 -32.4211
LeftArm  6.71804 34.2349 -2.50352
LeftForeArm  71.6069 -75.1272 -125.669
LeftHand  -0.230603 0.207298 5.18982
RightShoulder  4.07337 2.52497 58.7625
RightArm  7.30541 1.02869 -5.17777
RightForeArm  6.52118 73.8052 45.835
RightHand  4.41888 17.8617 21.1587
LeftUpLeg  9.7666 6.69563 3.16213
LeftLeg  2.50385 -19.564 -0.416116
LeftFoot  -5.30881 -0.357051 7.37352
LeftToes  1.25507e-010 -3.78807e-010 5.71421e-011
192
root  -12.7604 40.3514 -61.1241 -10.6256 59.1187 -2.02817
RightUpLeg  3.02785 17.2363 1.70346
RightLeg  12.872 -3.00588 -1.8709
RightFoot  -8.86757 -0.355704 13.6101
RightToes  5.82063e-011 0 -3.6325e-017
Spine  13.3616 5.69562 3.28853
Spine1  -3.28206 7.54413 -10.8697
HEad  14.8827 -23.2472 -0.724048
LeftShoulder1  2.42676 -2.85678 -32.1332
LeftArm  6.20981 34.5177 -2.30089
LeftForeArm  72.1006 -75.1707 -125.532
LeftHand  -0.207882 0.0439542 4.55017
RightShoulder  3.67282 1.83162 59.7855
RightArm  7.84292 0.365674 -5.46452
RightForeArm  7.86718 73.8386 45.7062
RightHand  4.4971 18.5787 20.8767
LeftUpLeg  10.0117 7.30168 4.15463
LeftLeg  2.64646 -17.7441 -0.49617
LeftFoot  -5.96415 -0.2831 6.7866
LeftToes  1.25507e-010 -3.78807e-010 5.71421e-011
193
root  -12.885 40.345 -60.7763 -10.7629 56.2628 -2.38043
RightUpLeg  1.00202 16.697 1.50521
RightLeg  15.0991 -3.80327 -1.41454
RightFoot  -10.3135 -0.191415 13.4357
RightToes  5.82063e-011 0 -3.6325e-017
Spine  13.6449 5.65462 3.03493
Spine1  -3.35507 7.4303 -10.5309
HEad  14.2652 -24.2768 0.039354
LeftShoulder1  2.44217 -2.91165 -32.0475
LeftArm  5.9556 34.4005 -1.74807
LeftForeArm  73.3376 -75.1397 -125.859
LeftHand  -0.248341 -0.420164 5.04462
RightShoulder  3.15984 1.00206 60.8279
RightArm  8.40555 -0.642873 -5.73065
RightForeArm  9.17778 73.8787 45.6077
RightHand  4.65302 19.1866 21.0557
LeftUpLeg  10.6828 7.90115 5.33891
LeftLeg  2.0935 -15.7817 -0.382955
LeftFoot  -6.23471 -0.238222 6.17921
LeftToes  1.25507e-010 -3.78807e-010 5.71421e-011
